<svg id="Layer_1" data-name="Layer 1" xmlns="http://www.w3.org/2000/svg" viewBox="0 0 312.87 96.31"><defs><style>.cls-1{fill:#505d2a;}.cls-2{fill:#d6d8aa;}</style></defs><path class="cls-1" d="M208.27,127.53c1.6,2.9,1.67,5.75-.3,8.53a1.53,1.53,0,0,0-.26.94,20.85,20.85,0,0,1-6.57,14.81c-1.06,1.07-2.09,2.16-3.19,3.22,1.66-.62,3.3-1.26,5-1.84,2.12-.74,4.25-1.46,6.39-2.14a13.93,13.93,0,0,0,4.31-2.47,54.92,54.92,0,0,1,14.26-7.93,41.21,41.21,0,0,1,6.45-1.54,78.35,78.35,0,0,0,8.06-2.25,20.64,20.64,0,0,1,12.7,0c2.12.66,4.29,1.08,6.42,1.69a4,4,0,0,1,1.72,1,2,2,0,0,1,.67,2.05c-.22.73-.85.93-1.54,1a8.44,8.44,0,0,0-3.55,1.35,23.94,23.94,0,0,1-8.61,3.31,27.62,27.62,0,0,1-4,.64c-3.31.24-6.35,1.52-9.51,2.38-6.31,1.74-12.69,3-19.29,2-4.48-.66-8.6.56-12.73,2.16-8.07,3.14-15.88,6.86-23.8,10.34-1.33.58-2.72,1-4.09,1.52l.06.23c1.13,0,2.26,0,3.39.08,3.41.18,6.8.73,10.23.41a71.61,71.61,0,0,1,7.61-.45,65.27,65.27,0,0,1,14.24,2.07c2.68.63,5.25,1.67,8,2.1a47.61,47.61,0,0,0,7,.28,10.07,10.07,0,0,1,1.45.08c1.19.17,1.57,1.09.83,2a9.54,9.54,0,0,1-4.84,3.35,34.2,34.2,0,0,1-13.56,1.3c-4.75-.5-9.53-.57-14.28-1.07a60.1,60.1,0,0,1-12.28-2.82c-4-1.29-7.82-3-11.95-3.82-1.12-.22-2.27-.37-3.4-.57a6.12,6.12,0,0,0-2.93.4,99.19,99.19,0,0,1-21.66,4.61,33.57,33.57,0,0,1-11.8-1,3.57,3.57,0,0,1-.83-.35,1.26,1.26,0,0,1,.88-2.33,84.14,84.14,0,0,0,8.53,1.2,3.57,3.57,0,0,0,2.26-.59c2.48-1.56,4.1-3.91,5.69-6.28a92.5,92.5,0,0,0,6.38-11.85A34.25,34.25,0,0,1,168,139.05a48.53,48.53,0,0,0,11-10.17,33,33,0,0,1,2.38-2.5c.4-.4.86-.84,1.51-.51a1.52,1.52,0,0,1,.74,1.55,10.86,10.86,0,0,1-1.17,5.1c-2.83,5.18-5.4,10.53-8.92,15.31a49,49,0,0,1-5.53,6.24c-2.88,2.77-5.33,5.94-8.16,8.76-3.56,3.54-7.27,6.88-12,8.8a2.43,2.43,0,0,0-.41.26,14.16,14.16,0,0,0,3.78-.25,105.63,105.63,0,0,0,15.67-4,131.54,131.54,0,0,0,16.43-6c5.7-2.66,11.22-5.64,15.83-10a21.36,21.36,0,0,0,6.77-13c0-.24,0-.48.06-.72a1.38,1.38,0,0,0-1.05-1.7,7.42,7.42,0,0,1-3.52-3c-.47-.67-.88-1.37-1.32-2.06C200.56,128.41,205.84,126.24,208.27,127.53Z" transform="translate(6.87 -83.3)"/><path class="cls-2" d="M208.27,127.53c-2.43-1.29-7.71.88-8.14,3.64A11.45,11.45,0,0,1,197,127a38.89,38.89,0,0,1-3.76-12,13.93,13.93,0,0,0-2-5.88c-.38-.54-.07-.87.54-.86a5,5,0,0,1,2.13.37c.74.36,1.4.33,1.62-.67a1.43,1.43,0,0,1,.19-.42c.61-1.13.84-1.21,2-.61a7.76,7.76,0,0,1,1.37.87c.4.34.74.32,1-.06.4-.61,1.08-.87,1.58-1.35a.76.76,0,0,1,.93-.08.63.63,0,0,1,.31.69c-.32,2.49.72,4.65,1.88,6.7,2.16,3.82,3.71,7.8,3.7,12.26A3.68,3.68,0,0,1,208.27,127.53Z" transform="translate(6.87 -83.3)"/><path class="cls-1" d="M20.8,147.81l-.28-.3a1.34,1.34,0,0,1,.05-1.14,9.47,9.47,0,0,1,4.14-4.3,3,3,0,0,1,2.67-.4l.55.56a2.26,2.26,0,0,0,.75.9,8.43,8.43,0,0,1,1.55,2.65,2.92,2.92,0,0,1,0,2.47c-.35.67-.07.87.53,1.08a59.38,59.38,0,0,0,10,2.17c2.1.33,4.18.73,6.26,1.15a47.14,47.14,0,0,1,6.23,1.64c-.81-.92-1.53-1.71-2.22-2.51a50.2,50.2,0,0,1-10.48-18.52c-.63-2.12-1.46-4.17-2.06-6.3a9.09,9.09,0,0,1-.41-2.78c0-1.26.45-1.54,1.6-1.05a14.9,14.9,0,0,1,4.38,3.06c5.39,5.18,10.09,10.88,13.12,17.82a84.59,84.59,0,0,1,3.72,11.28,3,3,0,0,0,1.36,1.91,56.8,56.8,0,0,0,17.52,7.05c.08,0,.17,0,.35-.12-.29-.25-.58-.52-.89-.75a14.68,14.68,0,0,1-5.49-8.13,3.25,3.25,0,0,0-1.58-2.09,4.1,4.1,0,0,1-1.79-2.84,13.88,13.88,0,0,1,0-4.17c.75-1.21,2-1.33,3.19-1.28a7.73,7.73,0,0,1,6.15,3.34,1.61,1.61,0,0,1-.22,1.6,16.21,16.21,0,0,0-1,1.83A4.36,4.36,0,0,1,76,153.83c-.66.22-.68.63-.51,1.12a13.88,13.88,0,0,0,5.9,7.79,36.25,36.25,0,0,0,5,2.36,9,9,0,0,1-.81-2,5.86,5.86,0,0,1,1.61-5.68,1.66,1.66,0,0,0,.55-1.27c0-2,1.21-3.48,2.4-4.94.3-.37.55-.82,1.08-.93,2.7,1.22,4.45,3.15,4.73,6.2,0,.46.07.93-.48,1.15a12.18,12.18,0,0,1-2.4,1,4.67,4.67,0,0,1-2.77,0c-1.28-.42-1.8-.23-2.48.93a4.24,4.24,0,0,0,1.28,5.57,2.87,2.87,0,0,0,1.44.48c5.54.32,11.09.31,16.64.29,7.24,0,14.42.45,21.33,2.87a21.54,21.54,0,0,1,4.24,1.83,2.61,2.61,0,0,1,.63.51,1.4,1.4,0,0,1,.13,1.54c-.21.51-.69.55-1.15.54a7.77,7.77,0,0,1-2.93-.91,26,26,0,0,0-4.51-1.66c-3.89-1-7.49.09-11,1.68-3.71,1.67-7.14,3.94-11,5.2-3.34,1.08-6.68,2.22-10.27,2a14.24,14.24,0,0,1-9.34-3.71c-.31-.29-.71-.47-1-.76a1.19,1.19,0,0,1-.38-1.23.74.74,0,0,1,.76-.54c3.87-.33,7.47-1.78,11.21-2.66a47.19,47.19,0,0,1,12.2-1,46.87,46.87,0,0,0,6.91.06,14.05,14.05,0,0,0,1.41-.28c1.11.15,2.13-.35,3.21-.35v-.23l-2.95-.22c-9.7-.62-19.44-.35-29.13-1.15a60.48,60.48,0,0,1-12.76-2.81,39.4,39.4,0,0,1-5.18-2,1.33,1.33,0,0,0-1.12-.06,9.12,9.12,0,0,1-4.58.37,25.13,25.13,0,0,0-12.93.63,39.33,39.33,0,0,1-6.51,1.66c-6,.95-11.78.47-17.2-2.48a7.52,7.52,0,0,1-3.13-3.21c-.68-1.31-.47-2,.92-2.45a16,16,0,0,1,6.8-.9,20.28,20.28,0,0,1,4.11.77,19,19,0,0,0,7.73.51,42.27,42.27,0,0,1,12.6.47A34.65,34.65,0,0,1,60,159.83a2.15,2.15,0,0,0,1.64.18c-1.66-.73-3.3-1.54-5-2.19a90.81,90.81,0,0,0-19.4-5,33.72,33.72,0,0,1-7.45-2,1.44,1.44,0,0,0-1.15,0c-2.9,1.27-5.17.23-7.1-2A2.36,2.36,0,0,0,20.8,147.81Z" transform="translate(6.87 -83.3)"/><path class="cls-2" d="M27.38,141.67a3,3,0,0,0-2.67.4,9.47,9.47,0,0,0-4.14,4.3,1.34,1.34,0,0,0-.05,1.14,5.44,5.44,0,0,0-1.84-.17,19,19,0,0,1-8.46-2.26c-2.06-1.06-4.08-2.2-6.09-3.37a20.47,20.47,0,0,1-2.92-2,9.34,9.34,0,0,0-4.8-1.91,16.4,16.4,0,0,1-2.21-.48c-1.18-.36-1.47-1.59-.43-2.8a5.76,5.76,0,0,1,4-1.83,6.91,6.91,0,0,0,.9-.11c.64-.13.81-.46.56-1.12A18.21,18.21,0,0,1-1.52,127c-.08-.75.43-.86,1-.88a14.11,14.11,0,0,1,3.89.24c.7.18.85-.05.72-.74a27.7,27.7,0,0,1-.09-5c0-.74.42-1,1.14-.89a15.26,15.26,0,0,1,2.77.85c.55.22,1,.32,1-.61a19.28,19.28,0,0,1,.36-2.69c.16-1.12.39-1.29,1.48-1.13a7.43,7.43,0,0,1,3.94,1.72c.47.42.77.36.81-.29A7.52,7.52,0,0,1,16.9,114a4.17,4.17,0,0,1,2.86-1.56c.54-.14.76.34.74.8a12.43,12.43,0,0,0,1.13,5.1,46.64,46.64,0,0,0,2.05,4.43A41,41,0,0,1,27,131.46a22.32,22.32,0,0,1,.78,6.9C27.65,139.47,27.05,140.52,27.38,141.67Z" transform="translate(6.87 -83.3)"/><path class="cls-2" d="M79.71,148.21a7.73,7.73,0,0,0-6.15-3.34c-1.21-.05-2.44.07-3.19,1.28a15,15,0,0,1-2.29-2.29,22.57,22.57,0,0,1-2.5-4.7,38.43,38.43,0,0,1-2.2-9.71c-.33-2.82-.79-5.62-1.18-8.44a4.15,4.15,0,0,0-.55-1.14c-.37-.83-.17-1.28.73-1.41a6.29,6.29,0,0,1,3.41.62A18.22,18.22,0,0,1,69,121a1.12,1.12,0,0,0,1.67-.07,6.54,6.54,0,0,1,2.46-1.33,1.17,1.17,0,0,1,1.26.3A9.13,9.13,0,0,1,76,122.3c.49.94.74,1,1.39.22.51-.6,1.1-1.12,1.6-1.73s1.4-.19,1.82.75,1.19,2,1.65,3.07c.16.38.49.53,1,.21.76-.54,1.61-1,2.4-1.46a.8.8,0,0,1,1.24.27,11,11,0,0,1,1.42,2.72c.38,1.2.64,1.22,1.88,1,2.51-.46,5-.32,7,1.53.59.54.44,1.07-.33,1.21-1.85.36-3,1.7-4,3-2.14,2.63-3.67,5.67-5.55,8.48a17.29,17.29,0,0,1-6.56,6.23A8.59,8.59,0,0,1,79.71,148.21Z" transform="translate(6.87 -83.3)"/><path class="cls-2" d="M95.49,157.67c.55-.22.52-.69.48-1.15-.28-3.05-2-5-4.73-6.2a11.09,11.09,0,0,1,.65-2.73c.73-1.83,2.1-3.28,3-5a.92.92,0,0,1,.17-.22c1.81-1.53,3.1-3.55,4.79-5.2a11.53,11.53,0,0,0,3.42-5.63c.26-1.15.9-1.21,1.81-.46a5.69,5.69,0,0,1,1.83,3.63,1.12,1.12,0,0,0,1.22,1.06,12.55,12.55,0,0,1,2.52.28.92.92,0,0,1,.85,1.08,11.18,11.18,0,0,1-.42,2.77c-.15.48,0,.59.4.63a13.59,13.59,0,0,1,4.42,1.26c.93.41,1.27.72.86,1.89-.27.76-.44,1.56-.75,2.32-.23.55-.21,1,.56,1.1a5.75,5.75,0,0,1,.87.26c1.76.52,1.94.82,1.5,2.61a9.35,9.35,0,0,1-1.47,3.59c-.31.41,0,.6.21.84a9.24,9.24,0,0,1,2.31,2.88c.06.17.15.32.22.49.16.45.24,1-.13,1.27s-.83,0-1.14-.31a3.68,3.68,0,0,0-2.21-.6,13.06,13.06,0,0,0-3.74.08c-1.35.19-2.74.3-4.07.55-.87.16-1.76.29-2.63.47a15.68,15.68,0,0,1-6.82.1A12.41,12.41,0,0,1,95.49,157.67Z" transform="translate(6.87 -83.3)"/><path class="cls-1" d="M20.8,147.81a2.36,2.36,0,0,1,.69.95C21.19,148.49,20.78,148.31,20.8,147.81Z" transform="translate(6.87 -83.3)"/><path class="cls-1" d="M28.68,143.13a2.26,2.26,0,0,1-.75-.9A1.41,1.41,0,0,1,28.68,143.13Z" transform="translate(6.87 -83.3)"/><path class="cls-1" d="M293.17,119.9c1.26-2.38,2.53-4.74,5.28-5.74a1.26,1.26,0,0,0,.71-.67,27.22,27.22,0,0,0,2.56-6.87c.5-3-.22-5.63-2.72-7.52a9.65,9.65,0,0,0-7.58-1.69,16.7,16.7,0,0,0-7.17,3.49,63.93,63.93,0,0,0-7.33,6.42A113.71,113.71,0,0,1,254.17,125a80.64,80.64,0,0,0-13.29,9.48,33.75,33.75,0,0,0-6.59,7.85c-.54.9-1.06,1.11-1.75.86a1.54,1.54,0,0,1-1-1.94,9.76,9.76,0,0,1,2-3.85,17.73,17.73,0,0,1,1.71-2.07,5.33,5.33,0,0,0,1.14-1.72,65.07,65.07,0,0,1,4-8.18,48.16,48.16,0,0,0,3.11-8.72,39.72,39.72,0,0,1,8.54-15.27c1.18-1.28,2.61-2.32,3.41-3.93,1.26-2.57,2.78-5,4.27-7.44a15.14,15.14,0,0,1,8-6.46c1.93-.68,2.66,0,2.32,2a14,14,0,0,1-1.4,3.72,41.24,41.24,0,0,0-2.9,8.46,42.85,42.85,0,0,1-6.62,14.65c-1.34,1.92-3.1,3.48-4.48,5.36-.89,1.22-1.73,2.48-2.63,3.69-1.18,1.6-2.85,2.72-4.18,4.18a5.17,5.17,0,0,0-.52.62,40.77,40.77,0,0,0,4.36-2.48c4.82-3,9.46-6.28,14-9.69a98.38,98.38,0,0,0,8.51-7.3A66.25,66.25,0,0,1,285,98.11a16,16,0,0,1,9.11-2.79,9.67,9.67,0,0,1,9.32,12,18.42,18.42,0,0,1-1.72,4.9,3.17,3.17,0,0,0-.06,3.33,5.92,5.92,0,0,1,.79,3.25c0,1.58-.2,3.16-.37,4.74a1.14,1.14,0,0,1-.89.36,10.48,10.48,0,0,1-7.34-2.25A1.58,1.58,0,0,1,293.17,119.9Z" transform="translate(6.87 -83.3)"/><path class="cls-2" d="M293.17,119.9a1.58,1.58,0,0,0,.64,1.73,10.48,10.48,0,0,0,7.34,2.25,1.14,1.14,0,0,0,.89-.36,25.71,25.71,0,0,1,1.77,5,12.13,12.13,0,0,1,.21,3c0,1.61,0,3.21-.19,4.8a10.64,10.64,0,0,1-.41,2.34,11,11,0,0,0-.13,2.77,13.49,13.49,0,0,0,1.11,5.5,3.54,3.54,0,0,0,1.34,2c.46.29.27,1-.29,1.22a4.08,4.08,0,0,1-1.63.26,7.81,7.81,0,0,1-4.93-2.16c-.94-.83-.91-.84-2-.12a12.35,12.35,0,0,1-2,1.2,1,1,0,0,1-1.49-.53c-.26-.59-.6-1.14-.84-1.73s-.57-.56-1-.34a11.79,11.79,0,0,1-3.48,1.11c-1.27.17-1.8-.14-2.15-1.34a20.91,20.91,0,0,1-.83-2.69c-.07-.45-.3-.5-.7-.39a12,12,0,0,1-2.53.62c-1.29.09-1.74-.2-2.09-1.47-.14-.51-.31-1-.41-1.54a.85.85,0,0,0-1-.75,4.16,4.16,0,0,1-1.86,0,10,10,0,0,1-3.05-1c-.3-.13-.73-.4-.68-.85.07-.63.68-.84,1.12-1a10.58,10.58,0,0,0,3.23-2.18,40,40,0,0,0,5.21-6.4l0-.06c1.39-1.29,2.14-3.15,3.66-4.29,1.29-1,2.33-2.21,3.85-2.94A21,21,0,0,0,293.17,119.9Z" transform="translate(6.87 -83.3)"/></svg>