<svg id="Layer_1" data-name="Layer 1" xmlns="http://www.w3.org/2000/svg" viewBox="0 0 487.94 105.22"><defs><style>.cls-1{fill:#505d2a;}.cls-2{fill:#d6d8aa;}</style></defs><path class="cls-1" d="M338.27,133.53c1.6,2.9,1.67,5.75-.3,8.53a1.53,1.53,0,0,0-.26.94,20.85,20.85,0,0,1-6.57,14.81c-1.06,1.07-2.09,2.16-3.19,3.22,1.66-.62,3.3-1.26,5-1.84,2.12-.74,4.25-1.46,6.39-2.14a13.93,13.93,0,0,0,4.31-2.47,54.92,54.92,0,0,1,14.26-7.93,41.21,41.21,0,0,1,6.45-1.54,78.35,78.35,0,0,0,8.06-2.25,20.64,20.64,0,0,1,12.7,0c2.12.66,4.29,1.08,6.42,1.69a4,4,0,0,1,1.72,1,2,2,0,0,1,.67,2.05c-.22.73-.85.93-1.54,1a8.44,8.44,0,0,0-3.55,1.35,23.94,23.94,0,0,1-8.61,3.31,27.62,27.62,0,0,1-4,.64c-3.31.24-6.35,1.52-9.51,2.38-6.31,1.74-12.69,3-19.29,2-4.48-.66-8.6.56-12.73,2.16-8.07,3.14-15.88,6.86-23.8,10.34-1.33.58-2.72,1-4.09,1.52l.06.23c1.13,0,2.26,0,3.39.08,3.41.18,6.8.73,10.23.41a71.61,71.61,0,0,1,7.61-.45,65.27,65.27,0,0,1,14.24,2.07c2.68.63,5.25,1.67,8,2.1a47.61,47.61,0,0,0,7,.28,10.07,10.07,0,0,1,1.45.08c1.19.17,1.57,1.09.83,2a9.54,9.54,0,0,1-4.84,3.35,34.2,34.2,0,0,1-13.56,1.3c-4.75-.5-9.53-.57-14.28-1.07a60.1,60.1,0,0,1-12.28-2.82c-4-1.29-7.82-3-12-3.82-1.12-.22-2.27-.37-3.4-.57a6.12,6.12,0,0,0-2.93.4,99.19,99.19,0,0,1-21.66,4.61,33.57,33.57,0,0,1-11.8-1,3.57,3.57,0,0,1-.83-.35,1.26,1.26,0,0,1,.88-2.33,84.14,84.14,0,0,0,8.53,1.2,3.57,3.57,0,0,0,2.26-.59c2.48-1.56,4.1-3.91,5.69-6.28a92.5,92.5,0,0,0,6.38-11.85A34.25,34.25,0,0,1,298,145.05a48.53,48.53,0,0,0,11-10.17,33,33,0,0,1,2.38-2.5c.4-.4.86-.84,1.51-.51a1.52,1.52,0,0,1,.74,1.55,10.86,10.86,0,0,1-1.17,5.1c-2.83,5.18-5.4,10.53-8.92,15.31a49,49,0,0,1-5.53,6.24c-2.88,2.77-5.33,5.94-8.16,8.76-3.56,3.54-7.27,6.88-12,8.8a2.43,2.43,0,0,0-.41.26,14.16,14.16,0,0,0,3.78-.25,105.63,105.63,0,0,0,15.67-4,131.54,131.54,0,0,0,16.43-6c5.7-2.66,11.22-5.64,15.83-10a21.36,21.36,0,0,0,6.77-13c0-.24,0-.48.06-.72a1.38,1.38,0,0,0-1-1.7,7.42,7.42,0,0,1-3.52-3c-.47-.67-.88-1.37-1.32-2.06C330.56,134.41,335.84,132.24,338.27,133.53Z" transform="translate(93.97 -95.29)"/><path class="cls-2" d="M338.27,133.53c-2.43-1.29-7.71.88-8.14,3.64A11.45,11.45,0,0,1,327,133a38.89,38.89,0,0,1-3.76-12,13.93,13.93,0,0,0-2-5.88c-.38-.54-.07-.87.54-.86a5,5,0,0,1,2.13.37c.74.36,1.4.33,1.62-.67a1.43,1.43,0,0,1,.19-.42c.61-1.13.84-1.21,2-.61a7.76,7.76,0,0,1,1.37.87c.4.34.74.32,1-.06.4-.61,1.08-.87,1.58-1.35a.76.76,0,0,1,.93-.08.63.63,0,0,1,.31.69c-.32,2.49.72,4.65,1.88,6.7,2.16,3.82,3.71,7.8,3.7,12.26A3.68,3.68,0,0,1,338.27,133.53Z" transform="translate(93.97 -95.29)"/><path class="cls-1" d="M249.31,129.37l.17-.37a1.32,1.32,0,0,0-.39-1.06,9.48,9.48,0,0,0-5.25-2.85,3,3,0,0,0-2.67.43l-.35.71a2.38,2.38,0,0,1-.44,1.08,8.62,8.62,0,0,0-.68,3,2.93,2.93,0,0,0,.75,2.35c.53.53.33.8-.19,1.19a58,58,0,0,1-8.89,5.11c-1.89,1-3.76,2-5.62,3a49.14,49.14,0,0,0-5.43,3.46c.5-1.13.94-2.09,1.35-3.07A50.26,50.26,0,0,0,226,121.52c0-2.21.12-4.42.05-6.63a9,9,0,0,0-.46-2.77c-.41-1.19-.9-1.33-1.84-.51a14.82,14.82,0,0,0-3.24,4.24c-3.57,6.58-6.31,13.43-7.09,21a84.12,84.12,0,0,0-.11,11.88,3,3,0,0,1-.72,2.22,56.57,56.57,0,0,1-14.55,12c-.07,0-.14.1-.37,0,.2-.33.4-.67.62-1a14.69,14.69,0,0,0,2.76-9.41,3.26,3.26,0,0,1,.87-2.48,4.06,4.06,0,0,0,.84-3.25,13.22,13.22,0,0,0-1.22-4c-1.08-.93-2.29-.68-3.43-.26a7.74,7.74,0,0,0-4.84,5.05,1.63,1.63,0,0,0,.7,1.46,15.78,15.78,0,0,1,1.52,1.43,4.32,4.32,0,0,0,3,1.34c.7,0,.85.4.84.92A13.94,13.94,0,0,1,196.1,162a36.93,36.93,0,0,1-4,3.76,9,9,0,0,0,.16-2.11,5.86,5.86,0,0,0-3.25-4.93,1.66,1.66,0,0,1-.91-1c-.61-1.93-2.21-3-3.79-4-.4-.25-.77-.61-1.31-.55-2.2,2-3.29,4.35-2.62,7.35.1.44.22.9.8.94a13.34,13.34,0,0,0,2.6.27,4.73,4.73,0,0,0,2.65-.84c1.09-.79,1.64-.77,2.64.14a4.24,4.24,0,0,1,.48,5.69,2.88,2.88,0,0,1-1.23.9c-5.18,2-10.47,3.66-15.76,5.32-6.92,2.17-13.61,4.82-19.46,9.22a21.43,21.43,0,0,0-3.48,3,2.68,2.68,0,0,0-.44.67,1.39,1.39,0,0,0,.34,1.51,1,1,0,0,0,1.26.16,8,8,0,0,0,2.52-1.75,25.67,25.67,0,0,1,3.78-3c3.42-2.09,7.17-2.18,11-1.74,4.05.47,8,1.59,12.11,1.6,3.52,0,7.05.09,10.4-1.23a14.22,14.22,0,0,0,7.77-6.37c.2-.37.53-.67.74-1a1.2,1.2,0,0,0,0-1.29.74.74,0,0,0-.88-.29c-3.79.87-7.66.59-11.49.88a46.93,46.93,0,0,0-11.93,2.76,48.37,48.37,0,0,1-6.56,2.15c-.47.09-.95.11-1.43.16-1,.48-2.13.31-3.17.64l-.06-.22,2.74-1.11c9.06-3.54,18.42-6.24,27.41-10A60.11,60.11,0,0,0,205,161.24a37.78,37.78,0,0,0,4.33-3.44,1.41,1.41,0,0,1,1-.4,9,9,0,0,0,4.47-1A25.23,25.23,0,0,1,227.33,153a39.59,39.59,0,0,0,6.71-.4c6-.91,11.37-3.14,15.64-7.59a7.59,7.59,0,0,0,2-4c.24-1.46-.16-2-1.63-2a16,16,0,0,0-6.75,1.21,20,20,0,0,0-3.68,2,19.24,19.24,0,0,1-7.21,2.84,42.1,42.1,0,0,0-11.86,4.27,34.16,34.16,0,0,0-4.9,3.43,2.13,2.13,0,0,1-1.51.67c1.36-1.2,2.68-2.47,4.1-3.6a90.57,90.57,0,0,1,16.95-10.71,33.64,33.64,0,0,0,6.5-4.15,1.43,1.43,0,0,1,1.07-.39c3.16.32,5-1.35,6.16-4A2.45,2.45,0,0,1,249.31,129.37Z" transform="translate(93.97 -95.29)"/><path class="cls-2" d="M241.17,125.52a3,3,0,0,1,2.67-.43,9.48,9.48,0,0,1,5.25,2.85,1.32,1.32,0,0,1,.39,1.06,5.55,5.55,0,0,1,1.7-.72,19,19,0,0,0,7.38-4.72c1.64-1.64,3.21-3.34,4.77-5.06a20,20,0,0,0,2.18-2.77,9.45,9.45,0,0,1,4-3.28,16.59,16.59,0,0,0,2-1.13c1-.7.91-2-.44-2.79a5.71,5.71,0,0,0-4.39-.52c-.29.06-.59.13-.88.16-.66.07-.92-.19-.88-.89a17.87,17.87,0,0,0-.63-4.48c-.14-.74-.66-.69-1.19-.54a14.39,14.39,0,0,0-3.64,1.41c-.61.38-.82.21-.91-.48a26.55,26.55,0,0,0-1.43-4.78c-.22-.71-.71-.85-1.35-.5a14.38,14.38,0,0,0-2.38,1.64c-.46.38-.87.62-1.16-.26A19,19,0,0,0,251,96.83c-.5-1-.76-1.11-1.75-.62A7.37,7.37,0,0,0,246.05,99c-.33.55-.63.59-.86,0A7.5,7.5,0,0,0,242.74,96a4.21,4.21,0,0,0-3.2-.62c-.55,0-.62.55-.46,1a12.45,12.45,0,0,1,.48,5.21c-.1,1.62-.35,3.23-.61,4.84a40.69,40.69,0,0,0-.47,9.29,22.28,22.28,0,0,0,1.35,6.81C240.24,123.51,241.14,124.33,241.17,125.52Z" transform="translate(93.97 -95.29)"/><path class="cls-2" d="M193.3,147.65a7.74,7.74,0,0,1,4.84-5.05c1.14-.42,2.35-.67,3.43.26a14.85,14.85,0,0,0,1.5-2.88,23,23,0,0,0,.94-5.24,38.46,38.46,0,0,0-.85-9.92c-.54-2.79-1-5.6-1.44-8.4a4.34,4.34,0,0,1,.17-1.25c.11-.91-.22-1.28-1.11-1.13a6.37,6.37,0,0,0-3.07,1.63,18.5,18.5,0,0,0-2.42,2.81,1.12,1.12,0,0,1-1.61.44,6.63,6.63,0,0,0-2.75-.52,1.13,1.13,0,0,0-1.1.67,9,9,0,0,0-.85,2.77c-.18,1-.42,1.15-1.26.63-.67-.41-1.39-.73-2.05-1.16s-1.4.24-1.51,1.26-.53,2.27-.64,3.43c0,.41-.3.66-.85.49-.89-.27-1.82-.42-2.73-.65a.79.79,0,0,0-1.1.63,11.39,11.39,0,0,0-.53,3c0,1.26-.24,1.36-1.49,1.51-2.53.33-4.81,1.2-6.17,3.58-.39.69-.09,1.15.69,1,1.87-.22,3.35.71,4.78,1.65,2.83,1.86,5.22,4.29,7.86,6.4a17.27,17.27,0,0,0,8.15,3.94A9.1,9.1,0,0,0,193.3,147.65Z" transform="translate(93.97 -95.29)"/><path class="cls-2" d="M181.14,161.46c-.58,0-.7-.5-.8-.94-.67-3,.42-5.37,2.62-7.35a10.81,10.81,0,0,0-1.45-2.4c-1.25-1.52-3-2.49-4.42-3.84a.66.66,0,0,0-.22-.15c-2.19-.91-4-2.44-6.14-3.51a11.37,11.37,0,0,1-5-4.32c-.6-1-1.23-.88-1.87.11a5.74,5.74,0,0,0-.64,4,1.11,1.11,0,0,1-.84,1.38,12.62,12.62,0,0,0-2.32,1,.93.93,0,0,0-.48,1.29,11.1,11.1,0,0,0,1.25,2.51c.29.41.21.55-.2.72a13.44,13.44,0,0,0-3.82,2.55c-.76.67-1,1.07-.24,2.06.48.64.89,1.35,1.42,2,.38.45.5.9-.2,1.22a4.72,4.72,0,0,0-.75.51c-1.52,1-1.61,1.38-.64,2.94a9.43,9.43,0,0,0,2.49,3c.41.29.19.57.06.86a9.1,9.1,0,0,0-1.33,3.44c0,.18-.05.36-.06.54,0,.47.07,1,.51,1.17s.78-.28,1-.64c.43-.76,1.26-.92,1.92-1.24a13.2,13.2,0,0,1,3.59-1.07c1.34-.23,2.7-.54,4.05-.71.88-.11,1.76-.26,2.65-.35a15.64,15.64,0,0,0,6.52-2A12.56,12.56,0,0,0,181.14,161.46Z" transform="translate(93.97 -95.29)"/><path class="cls-1" d="M249.31,129.37a2.45,2.45,0,0,0-.38,1.12C249.14,130.14,249.48,129.84,249.31,129.37Z" transform="translate(93.97 -95.29)"/><path class="cls-1" d="M240.38,127.31a2.38,2.38,0,0,0,.44-1.08A1.41,1.41,0,0,0,240.38,127.31Z" transform="translate(93.97 -95.29)"/><path class="cls-1" d="M264,156.45c2.2,1.54,4.4,3.07,7.31,2.71a1.23,1.23,0,0,1,.94.27,27,27,0,0,1,5.4,4.95c1.82,2.45,2.37,5.11,1,7.93a9.62,9.62,0,0,1-6,5,16.78,16.78,0,0,1-8,.16,63.76,63.76,0,0,1-9.45-2.38,113.07,113.07,0,0,0-28.28-5.34,80.84,80.84,0,0,1-16.15-2.38,34,34,0,0,1-9.44-4c-.89-.56-1.45-.51-1.94,0a1.53,1.53,0,0,0,0,2.16,9.55,9.55,0,0,0,3.51,2.52,15.89,15.89,0,0,0,2.47,1.07,5.42,5.42,0,0,1,1.8,1,63.48,63.48,0,0,0,7.28,5.47c2.57,1.78,4.57,4.14,6.74,6.35a39.67,39.67,0,0,0,14.55,9.7c1.63.6,3.38.88,4.82,1.95,2.3,1.71,4.76,3.18,7.2,4.68a15.11,15.11,0,0,0,10.1,2.08c2-.26,2.38-1.17,1.15-2.82a13.83,13.83,0,0,0-2.94-2.67,42,42,0,0,1-6.43-6.22,42.81,42.81,0,0,0-12.57-10c-2.06-1.1-4.34-1.69-6.43-2.74-1.34-.68-2.66-1.41-4-2.09-1.78-.88-3.78-1.11-5.63-1.81a5.94,5.94,0,0,1-.75-.31,40.07,40.07,0,0,1,5,.21c5.66.48,11.27,1.29,16.86,2.27a95,95,0,0,1,10.9,2.62,67.19,67.19,0,0,0,13.51,2.81,16.17,16.17,0,0,0,9.38-1.67A9.67,9.67,0,0,0,278.8,163a18.29,18.29,0,0,0-3.77-3.58,3.14,3.14,0,0,1-1.56-2.94,6,6,0,0,0-.78-3.25c-.76-1.39-1.62-2.73-2.49-4.05a1.13,1.13,0,0,0-.95.08,10.4,10.4,0,0,0-5.51,5.35A1.55,1.55,0,0,0,264,156.45Z" transform="translate(93.97 -95.29)"/><path class="cls-2" d="M264,156.45a1.55,1.55,0,0,1-.22-1.83,10.4,10.4,0,0,1,5.51-5.35,1.13,1.13,0,0,1,.95-.08,25.39,25.39,0,0,0-.68-5.22,12.21,12.21,0,0,0-1.19-2.79c-.74-1.43-1.49-2.85-2.36-4.19a11.12,11.12,0,0,0-1.43-1.9,10.41,10.41,0,0,1-1.37-2.4,13.5,13.5,0,0,1-1.52-5.4,3.62,3.62,0,0,1,.28-2.41c.28-.46-.22-1-.81-.94a3.92,3.92,0,0,0-1.58.51,7.8,7.8,0,0,0-3.4,4.16c-.46,1.17-.43,1.17-1.72,1a11.71,11.71,0,0,0-2.37-.14c-.75,0-1.13.37-1.08,1.16,0,.63,0,1.28,0,1.91s-.25.76-.77.78a11.66,11.66,0,0,0-3.6.6c-1.21.43-1.54.94-1.3,2.17a21.68,21.68,0,0,0,.48,2.77c.15.43,0,.59-.44.66a12.28,12.28,0,0,0-2.53.61c-1.2.5-1.47,1-1.2,2.26.11.52.19,1.06.34,1.56a.86.86,0,0,1-.59,1.14,4.11,4.11,0,0,0-1.64.87,9.78,9.78,0,0,0-2.27,2.27c-.21.25-.47.68-.22,1.06s1,.43,1.48.43a10.37,10.37,0,0,1,3.86.46,40.11,40.11,0,0,1,7.56,3.33l.07,0c1.83.52,3.34,1.83,5.21,2.15,1.59.28,3.08.91,4.77.87A21.35,21.35,0,0,1,264,156.45Z" transform="translate(93.97 -95.29)"/><path class="cls-1" d="M-38.26,133.53c-1.6,2.9-1.67,5.75.3,8.53a1.6,1.6,0,0,1,.26.94c.07,5.88,2.5,10.71,6.57,14.81,1.06,1.07,2.09,2.16,3.18,3.22-1.65-.62-3.3-1.26-5-1.84-2.12-.74-4.25-1.46-6.39-2.14a13.93,13.93,0,0,1-4.31-2.47,54.92,54.92,0,0,0-14.26-7.93,41.48,41.48,0,0,0-6.45-1.54,77,77,0,0,1-8.06-2.25,20.64,20.64,0,0,0-12.7,0c-2.12.66-4.29,1.08-6.42,1.69a4.08,4.08,0,0,0-1.73,1,2,2,0,0,0-.66,2.05c.21.73.85.93,1.54,1A8.49,8.49,0,0,1-88.8,150a23.94,23.94,0,0,0,8.61,3.31,27.4,27.4,0,0,0,4,.64c3.3.24,6.35,1.52,9.5,2.38,6.32,1.74,12.7,3,19.29,2,4.49-.66,8.61.56,12.74,2.16,8.07,3.14,15.88,6.86,23.8,10.34,1.33.58,2.72,1,4.08,1.52l0,.23c-1.13,0-2.27,0-3.4.08-3.4.18-6.79.73-10.22.41A71.61,71.61,0,0,0-28,172.6a65.27,65.27,0,0,0-14.24,2.07c-2.68.63-5.25,1.67-8,2.1a47.61,47.61,0,0,1-7,.28,10,10,0,0,0-1.45.08c-1.19.17-1.58,1.09-.83,2a9.5,9.5,0,0,0,4.84,3.35,34.2,34.2,0,0,0,13.56,1.3c4.75-.5,9.53-.57,14.28-1.07a60,60,0,0,0,12.27-2.82c4-1.29,7.83-3,12-3.82,1.12-.22,2.26-.37,3.4-.57a6.12,6.12,0,0,1,2.93.4,99.07,99.07,0,0,0,21.66,4.61,33.57,33.57,0,0,0,11.8-1,3.76,3.76,0,0,0,.83-.35,1.26,1.26,0,0,0-.88-2.33,84.14,84.14,0,0,1-8.53,1.2,3.6,3.6,0,0,1-2.27-.59c-2.47-1.56-4.1-3.91-5.68-6.28a91.27,91.27,0,0,1-6.38-11.85A34.2,34.2,0,0,0,2,145.05,49,49,0,0,1-9,134.88a32.89,32.89,0,0,0-2.37-2.5c-.41-.4-.86-.84-1.51-.51a1.52,1.52,0,0,0-.74,1.55,10.85,10.85,0,0,0,1.16,5.1c2.84,5.18,5.41,10.53,8.93,15.31a48.88,48.88,0,0,0,5.52,6.24c2.89,2.77,5.34,5.94,8.17,8.76,3.55,3.54,7.27,6.88,12,8.8a2.43,2.43,0,0,1,.41.26,14.16,14.16,0,0,1-3.78-.25,105.63,105.63,0,0,1-15.67-4,131.54,131.54,0,0,1-16.43-6c-5.7-2.66-11.23-5.64-15.83-10a21.43,21.43,0,0,1-6.78-13c0-.24,0-.48-.06-.72a1.4,1.4,0,0,1,1.05-1.7,7.39,7.39,0,0,0,3.53-3c.46-.67.88-1.37,1.31-2.06C-30.55,134.41-35.83,132.24-38.26,133.53Z" transform="translate(93.97 -95.29)"/><path class="cls-2" d="M-38.26,133.53c2.43-1.29,7.71.88,8.13,3.64A11.37,11.37,0,0,0-27,133a38.89,38.89,0,0,0,3.76-12,13.79,13.79,0,0,1,2-5.88c.38-.54.07-.87-.55-.86a5,5,0,0,0-2.12.37c-.74.36-1.4.33-1.62-.67a1.75,1.75,0,0,0-.19-.42c-.61-1.13-.85-1.21-2-.61a7.76,7.76,0,0,0-1.37.87c-.4.34-.74.32-1-.06-.41-.61-1.08-.87-1.58-1.35a.78.78,0,0,0-.94-.08.63.63,0,0,0-.31.69c.32,2.49-.71,4.65-1.87,6.7-2.16,3.82-3.71,7.8-3.7,12.26A3.68,3.68,0,0,0-38.26,133.53Z" transform="translate(93.97 -95.29)"/><path class="cls-1" d="M50.7,129.37l-.17-.37a1.32,1.32,0,0,1,.39-1.06,9.44,9.44,0,0,1,5.25-2.85,3,3,0,0,1,2.67.43l.35.71a2.28,2.28,0,0,0,.44,1.08,8.62,8.62,0,0,1,.68,3,2.93,2.93,0,0,1-.75,2.35c-.53.53-.33.8.18,1.19a58.59,58.59,0,0,0,8.9,5.11c1.89,1,3.76,2,5.61,3a48.33,48.33,0,0,1,5.44,3.46c-.5-1.13-.94-2.09-1.35-3.07A50.11,50.11,0,0,1,74,121.52c0-2.21-.12-4.42,0-6.63a9.28,9.28,0,0,1,.45-2.77c.42-1.19.9-1.33,1.85-.51a15.19,15.19,0,0,1,3.24,4.24c3.57,6.58,6.31,13.43,7.09,21a84.12,84.12,0,0,1,.11,11.88,3,3,0,0,0,.71,2.22,56.91,56.91,0,0,0,14.55,12c.08,0,.15.1.38,0-.21-.33-.4-.67-.62-1a14.69,14.69,0,0,1-2.77-9.41,3.22,3.22,0,0,0-.86-2.48,4.1,4.1,0,0,1-.85-3.25,13.53,13.53,0,0,1,1.23-4c1.08-.93,2.29-.68,3.43-.26a7.76,7.76,0,0,1,4.84,5.05,1.63,1.63,0,0,1-.7,1.46,17.16,17.16,0,0,0-1.53,1.43,4.32,4.32,0,0,1-3,1.34c-.71,0-.85.4-.84.92a13.94,13.94,0,0,0,3.26,9.22,36.93,36.93,0,0,0,4,3.76,9.62,9.62,0,0,1-.17-2.11,5.89,5.89,0,0,1,3.26-4.93,1.62,1.62,0,0,0,.9-1c.62-1.93,2.22-3,3.8-4,.4-.25.77-.61,1.31-.55,2.2,2,3.28,4.35,2.62,7.35-.1.44-.22.9-.8.94a13.34,13.34,0,0,1-2.6.27,4.71,4.71,0,0,1-2.65-.84c-1.09-.79-1.64-.77-2.65.14a4.25,4.25,0,0,0-.47,5.69,2.91,2.91,0,0,0,1.22.9c5.19,2,10.48,3.66,15.77,5.32,6.91,2.17,13.6,4.82,19.46,9.22a21.86,21.86,0,0,1,3.48,3,2.68,2.68,0,0,1,.44.67,1.39,1.39,0,0,1-.34,1.51,1.06,1.06,0,0,1-1.27.16,7.94,7.94,0,0,1-2.51-1.75,26.21,26.21,0,0,0-3.78-3c-3.42-2.09-7.17-2.18-11-1.74-4,.47-8,1.59-12.11,1.6-3.51,0-7,.09-10.39-1.23a14.22,14.22,0,0,1-7.77-6.37c-.2-.37-.53-.67-.74-1a1.2,1.2,0,0,1,0-1.29.75.75,0,0,1,.89-.29c3.79.87,7.66.59,11.49.88a47,47,0,0,1,11.93,2.76,48.37,48.37,0,0,0,6.56,2.15c.47.09.95.11,1.43.16,1,.48,2.13.31,3.17.64l.05-.22-2.73-1.11c-9.06-3.54-18.42-6.24-27.42-10A60.34,60.34,0,0,1,95,161.24a37.89,37.89,0,0,1-4.34-3.44,1.38,1.38,0,0,0-1-.4,9,9,0,0,1-4.47-1A25.26,25.26,0,0,0,72.67,153a39.47,39.47,0,0,1-6.7-.4c-6-.91-11.37-3.14-15.64-7.59a7.52,7.52,0,0,1-2-4c-.24-1.46.16-2,1.62-2a16,16,0,0,1,6.76,1.21,19.64,19.64,0,0,1,3.67,2A19.35,19.35,0,0,0,67.59,145a42,42,0,0,1,11.85,4.27,34.82,34.82,0,0,1,4.91,3.43,2.13,2.13,0,0,0,1.51.67c-1.37-1.2-2.68-2.47-4.1-3.6a90.9,90.9,0,0,0-17-10.71,33.34,33.34,0,0,1-6.5-4.15,1.44,1.44,0,0,0-1.08-.39c-3.15.32-5-1.35-6.16-4A2.33,2.33,0,0,0,50.7,129.37Z" transform="translate(93.97 -95.29)"/><path class="cls-2" d="M58.84,125.52a3,3,0,0,0-2.67-.43,9.44,9.44,0,0,0-5.25,2.85,1.32,1.32,0,0,0-.39,1.06,5.66,5.66,0,0,0-1.7-.72,19,19,0,0,1-7.38-4.72c-1.64-1.64-3.22-3.34-4.77-5.06a20,20,0,0,1-2.18-2.77,9.45,9.45,0,0,0-4-3.28,15.13,15.13,0,0,1-2-1.13c-1-.7-.92-2,.44-2.79a5.69,5.69,0,0,1,4.38-.52c.3.06.59.13.89.16.66.07.92-.19.88-.89a18.33,18.33,0,0,1,.62-4.48c.15-.74.67-.69,1.2-.54a14.32,14.32,0,0,1,3.63,1.41c.61.38.82.21.91-.48a27.39,27.39,0,0,1,1.43-4.78c.23-.71.71-.85,1.36-.5a14.81,14.81,0,0,1,2.38,1.64c.46.38.87.62,1.16-.26A19,19,0,0,1,49,96.83c.5-1,.77-1.11,1.76-.62A7.43,7.43,0,0,1,54,99c.33.55.62.59.86,0A7.48,7.48,0,0,1,57.26,96a4.23,4.23,0,0,1,3.21-.62c.55,0,.62.55.45,1a12.61,12.61,0,0,0-.47,5.21,46.72,46.72,0,0,0,.61,4.84,41.27,41.27,0,0,1,.47,9.29,22.29,22.29,0,0,1-1.36,6.81C59.76,123.51,58.87,124.33,58.84,125.52Z" transform="translate(93.97 -95.29)"/><path class="cls-2" d="M106.71,147.65a7.76,7.76,0,0,0-4.84-5.05c-1.14-.42-2.35-.67-3.43.26a14.85,14.85,0,0,1-1.5-2.88,23.56,23.56,0,0,1-1-5.24,38.46,38.46,0,0,1,.86-9.92c.54-2.79,1-5.6,1.43-8.4a4,4,0,0,0-.17-1.25c-.1-.91.23-1.28,1.12-1.13a6.37,6.37,0,0,1,3.07,1.63,17.89,17.89,0,0,1,2.41,2.81,1.13,1.13,0,0,0,1.62.44,6.6,6.6,0,0,1,2.75-.52,1.13,1.13,0,0,1,1.1.67,9,9,0,0,1,.85,2.77c.18,1,.41,1.15,1.26.63.67-.41,1.39-.73,2-1.16s1.4.24,1.5,1.26.53,2.27.64,3.43c0,.41.31.66.85.49.9-.27,1.83-.42,2.74-.65a.8.8,0,0,1,1.1.63,11.38,11.38,0,0,1,.52,3c0,1.26.25,1.36,1.49,1.51,2.54.33,4.82,1.2,6.17,3.58.4.69.1,1.15-.68,1-1.87-.22-3.36.71-4.78,1.65-2.84,1.86-5.22,4.29-7.86,6.4a17.27,17.27,0,0,1-8.15,3.94A9.14,9.14,0,0,1,106.71,147.65Z" transform="translate(93.97 -95.29)"/><path class="cls-2" d="M118.87,161.46c.58,0,.7-.5.8-.94.66-3-.42-5.37-2.62-7.35a10.1,10.1,0,0,1,1.45-2.4c1.25-1.52,3-2.49,4.41-3.84a.83.83,0,0,1,.23-.15c2.19-.91,4-2.44,6.14-3.51a11.37,11.37,0,0,0,5-4.32c.6-1,1.22-.88,1.87.11a5.74,5.74,0,0,1,.64,4,1.11,1.11,0,0,0,.84,1.38,12.24,12.24,0,0,1,2.31,1,.92.92,0,0,1,.48,1.29,10.67,10.67,0,0,1-1.24,2.51c-.29.41-.22.55.2.72a13.44,13.44,0,0,1,3.82,2.55c.76.67,1,1.07.24,2.06-.49.64-.89,1.35-1.42,2-.38.45-.51.9.2,1.22a5.22,5.22,0,0,1,.75.51c1.52,1,1.61,1.38.64,2.94a9.43,9.43,0,0,1-2.49,3c-.42.29-.2.57-.06.86a9.1,9.1,0,0,1,1.33,3.44c0,.18,0,.36.06.54,0,.47-.07,1-.51,1.17s-.78-.28-1-.64c-.43-.76-1.26-.92-1.92-1.24a13.16,13.16,0,0,0-3.6-1.07c-1.34-.23-2.69-.54-4-.71-.88-.11-1.77-.26-2.65-.35a15.73,15.73,0,0,1-6.53-2A12.67,12.67,0,0,1,118.87,161.46Z" transform="translate(93.97 -95.29)"/><path class="cls-1" d="M50.7,129.37a2.33,2.33,0,0,1,.37,1.12C50.87,130.14,50.53,129.84,50.7,129.37Z" transform="translate(93.97 -95.29)"/><path class="cls-1" d="M59.63,127.31a2.28,2.28,0,0,1-.44-1.08A1.41,1.41,0,0,1,59.63,127.31Z" transform="translate(93.97 -95.29)"/><path class="cls-1" d="M36.05,156.45c-2.2,1.54-4.4,3.07-7.31,2.71a1.21,1.21,0,0,0-.94.27,27,27,0,0,0-5.4,4.95c-1.82,2.45-2.37,5.11-1,7.93a9.63,9.63,0,0,0,6,5,16.79,16.79,0,0,0,8,.16,63.89,63.89,0,0,0,9.46-2.38,113.07,113.07,0,0,1,28.28-5.34,80.74,80.74,0,0,0,16.14-2.38,33.92,33.92,0,0,0,9.45-4c.89-.56,1.45-.51,1.94,0a1.54,1.54,0,0,1,0,2.16,9.5,9.5,0,0,1-3.52,2.52,15.38,15.38,0,0,1-2.46,1.07,5.33,5.33,0,0,0-1.8,1,64.36,64.36,0,0,1-7.28,5.47C83,177.38,81,179.74,78.79,182a39.71,39.71,0,0,1-14.56,9.7c-1.62.6-3.37.88-4.81,1.95-2.3,1.71-4.76,3.18-7.2,4.68a15.12,15.12,0,0,1-10.1,2.08c-2-.26-2.39-1.17-1.16-2.82a14.33,14.33,0,0,1,2.94-2.67,41.12,41.12,0,0,0,6.43-6.22,43.07,43.07,0,0,1,12.57-10c2.07-1.1,4.35-1.69,6.43-2.74,1.35-.68,2.67-1.41,4-2.09,1.78-.88,3.78-1.11,5.62-1.81a5.51,5.51,0,0,0,.76-.31,40.07,40.07,0,0,0-5,.21c-5.66.48-11.28,1.29-16.87,2.27a95.48,95.48,0,0,0-10.9,2.62,67,67,0,0,1-13.5,2.81,16.17,16.17,0,0,1-9.38-1.67A9.67,9.67,0,0,1,21.21,163,18.49,18.49,0,0,1,25,159.43a3.15,3.15,0,0,0,1.57-2.94,6,6,0,0,1,.77-3.25c.76-1.39,1.63-2.73,2.5-4.05a1.13,1.13,0,0,1,1,.08,10.4,10.4,0,0,1,5.51,5.35A1.55,1.55,0,0,1,36.05,156.45Z" transform="translate(93.97 -95.29)"/><path class="cls-2" d="M36.05,156.45a1.55,1.55,0,0,0,.22-1.83,10.4,10.4,0,0,0-5.51-5.35,1.13,1.13,0,0,0-1-.08,25.39,25.39,0,0,1,.68-5.22,11.78,11.78,0,0,1,1.19-2.79c.73-1.43,1.49-2.85,2.35-4.19a11.12,11.12,0,0,1,1.43-1.9,10.82,10.82,0,0,0,1.38-2.4,13.66,13.66,0,0,0,1.52-5.4,3.62,3.62,0,0,0-.28-2.41c-.28-.46.22-1,.81-.94a3.87,3.87,0,0,1,1.57.51,7.77,7.77,0,0,1,3.41,4.16c.46,1.17.43,1.17,1.72,1a11.71,11.71,0,0,1,2.37-.14c.75,0,1.12.37,1.08,1.16,0,.63,0,1.28,0,1.91s.25.76.77.78a11.66,11.66,0,0,1,3.6.6c1.21.43,1.54.94,1.3,2.17a20.08,20.08,0,0,1-.49,2.77c-.14.43,0,.59.45.66a12.28,12.28,0,0,1,2.53.61c1.2.5,1.47,1,1.2,2.26-.11.52-.19,1.06-.34,1.56a.85.85,0,0,0,.59,1.14,4.11,4.11,0,0,1,1.64.87,9.78,9.78,0,0,1,2.27,2.27c.21.25.47.68.21,1.06s-1,.43-1.47.43a10.34,10.34,0,0,0-3.86.46,39.83,39.83,0,0,0-7.56,3.33l-.07,0c-1.83.52-3.34,1.83-5.22,2.15-1.58.28-3.07.91-4.76.87A21.39,21.39,0,0,0,36.05,156.45Z" transform="translate(93.97 -95.29)"/></svg>